<?xml version="1.0" encoding="UTF-8"?>
<svg id="Layer_1" data-name="Layer 1" xmlns="http://www.w3.org/2000/svg" xmlns:xlink="http://www.w3.org/1999/xlink" viewBox="350 350 300 300" width="512" height="512">
  <defs>
    <style>
      .cls-1 {
        fill: url(#linear-gradient-2);
      }

      .cls-2 {
        fill: url(#linear-gradient);
      }
    </style>
    <linearGradient id="linear-gradient" x1="453.61" y1="562.41" x2="623.39" y2="562.41" gradientUnits="userSpaceOnUse">
      <stop offset="0" stop-color="#1b6ef3"/>
      <stop offset="1" stop-color="#3eb5ea"/>
    </linearGradient>
    <linearGradient id="linear-gradient-2" x1="350.68" y1="510.48" x2="623.39" y2="510.48" xlink:href="#linear-gradient"/>
  </defs>
  <path class="cls-2" d="M466.26,476.97c1.82-.19,3.68-.23,5.46-.23,11.65,0,23.3-.02,34.94-.03,3.42,0,6.9,0,10.18.97,3.28.96,6.4,3.04,7.81,6.16,1.05,2.32,1.06,4.96,1.06,7.51-.02,8.48-.03,16.96-.05,25.44,0,4.24-.02,8.48-.02,12.72,0,3.74-.63,7.95.26,11.6.13.55.3,1.09.53,1.61,1.73,3.98,3.97,7.83,6.43,11.39,3.18,4.61,7.01,8.78,11.49,12.15,5.71,4.31,12.43,7.14,19.42,8.59,7.67,1.6,15.44,1.22,23.22,1.18,6.11-.04,12.22-.08,18.34-.12,5.01-.03,10.58.15,14.16,3.65,3.66,3.58,3.9,9.3,3.9,14.42,0,12.04,0,24.09,0,36.13,0,4.24-.07,8.73-2.32,12.33-1.26,2.01-3.16,3.61-5.35,4.5-2.71,1.11-5.73,1.13-8.66,1.13-12.67.02-25.33.04-38,.05-5.09,0-10.78-.23-14.32-3.89-3.39-3.52-3.57-8.95-3.54-13.83.05-8.5.1-17,.15-25.5.03-5.54.06-11.12-.89-16.59-1.23-7.08-4.5-13.07-9.01-18.58-3.67-4.48-8.1-8.3-12.8-11.69-3.74-2.69-7.69-5.14-11.97-6.87-4.57-1.85-9.12-2.28-14-2.45-10.23-.35-20.52.15-30.76.26-5.18.06-10.99-.13-14.62-3.83-3.5-3.57-3.71-9.12-3.7-14.11.01-12.49.03-24.98.04-37.46,0-4.29.14-8.97,2.87-12.28,2.35-2.85,5.96-3.93,9.74-4.33Z"/>
  <path class="cls-1" d="M562.91,374.13h-151.74c-33.4,0-60.48,27.08-60.48,60.48v151.74c0,33.4,27.08,60.48,60.48,60.48h107.64c0-26.19-21.23-47.43-47.43-47.43h-60.21c-7.21,0-13.06-5.85-13.06-13.06v-151.74c0-7.21,5.85-13.06,13.06-13.06h151.74c7.21,0,13.06,5.85,13.06,13.06v69.13c0,26.19,21.23,47.43,47.43,47.43h0v-116.56c0-33.4-27.08-60.48-60.48-60.48Z"/>
</svg>
