<?xml version="1.0" encoding="UTF-8"?>
<svg version="1.1" xmlns="http://www.w3.org/2000/svg" width="667" height="374">
<path d="M0 0 C1.14864532 -0.01283524 2.29729065 -0.02567047 3.48074341 -0.03889465 C5.33854935 -0.04997505 5.33854935 -0.04997505 7.23388672 -0.0612793 C8.51407684 -0.06935104 9.79426697 -0.07742279 11.11325073 -0.08573914 C13.82501083 -0.10074266 16.536745 -0.11059016 19.24853516 -0.11816406 C22.69817561 -0.12918722 26.14716367 -0.16354791 29.59657478 -0.20333576 C32.91315052 -0.2360053 36.22966267 -0.24029845 39.54638672 -0.2487793 C40.77277863 -0.26628738 41.99917053 -0.28379547 43.26272583 -0.30183411 C51.65069253 -0.28081626 59.03109527 0.74509184 65.72607422 6.1418457 C66.24169922 6.79282227 66.75732422 7.44379883 67.28857422 8.11450195 C67.82482422 8.76290039 68.36107422 9.41129883 68.91357422 10.0793457 C71.46479275 13.97140351 72.54065173 17.41662278 72.515625 22.05908203 C72.51547394 22.99967972 72.51532288 23.9402774 72.51516724 24.90937805 C72.50484467 25.91163925 72.49452209 26.91390045 72.48388672 27.9465332 C72.48105682 28.98267258 72.47822693 30.01881195 72.47531128 31.08634949 C72.46413876 34.38751902 72.43903927 37.68841476 72.41357422 40.98950195 C72.40354065 43.23103449 72.39441545 45.47257128 72.38623047 47.71411133 C72.364209 53.20183455 72.33076043 58.68939869 72.28857422 64.17700195 C68.18577143 65.54460288 66.37776671 64.3355459 62.58154297 62.55200195 C58.70524603 60.2275445 55.18618685 56.89820234 53.73999023 52.51391602 C53.12626187 49.33673491 53.06495563 46.23943959 52.97216797 43.00512695 C52.95138687 42.32270935 52.93060577 41.64029175 52.90919495 40.93719482 C52.8440537 38.76722839 52.78498018 36.59714571 52.72607422 34.42700195 C52.68285525 32.95172974 52.6392399 31.47646908 52.59521484 30.0012207 C52.48840904 26.39327029 52.38704269 22.78519063 52.28857422 19.17700195 C44.87387361 19.28436105 37.45927247 19.39696499 30.04475498 19.51634121 C26.60221682 19.57160075 23.15967022 19.62502542 19.71704102 19.67431641 C15.76292896 19.73100996 11.80896477 19.7955769 7.85498047 19.8605957 C6.61333633 19.8773082 5.3716922 19.89402069 4.09242249 19.91123962 C2.38076149 19.94115746 2.38076149 19.94115746 0.63452148 19.97167969 C-0.37585678 19.98722397 -1.38623505 20.00276825 -2.42723083 20.01878357 C-4.67672467 19.92344926 -4.67672467 19.92344926 -5.71142578 21.17700195 C-5.80513202 22.95692119 -5.82886849 24.74056935 -5.82495117 26.52294922 C-5.82483788 28.23461021 -5.82483788 28.23461021 -5.82472229 29.98085022 C-5.819561 31.22249435 -5.81439972 32.46413849 -5.80908203 33.7434082 C-5.80695961 35.63904762 -5.80695961 35.63904762 -5.80479431 37.57298279 C-5.8001316 40.93825084 -5.79114058 44.30345185 -5.78009033 47.66870117 C-5.76987424 51.10049865 -5.76529627 54.53230304 -5.76025391 57.96411133 C-5.74919958 64.7017602 -5.73244288 71.4393772 -5.71142578 78.17700195 C-4.58498657 78.15343628 -4.58498657 78.15343628 -3.43579102 78.12939453 C-0.00691368 78.06672437 3.42184276 78.02790935 6.85107422 77.98950195 C8.0325 77.96436523 9.21392578 77.93922852 10.43115234 77.91333008 C20.20480778 77.83119852 26.14925193 79.36974117 33.28857422 86.17700195 C35.82905336 89.6412917 35.44971763 92.98727332 35.28857422 97.17700195 C30.22143125 98.86604961 24.8345409 98.36291872 19.53173828 98.36230469 C17.45567276 98.36445828 15.38016837 98.38252708 13.30419922 98.40161133 C-9.83495514 98.50442663 -9.83495514 98.50442663 -18.80908203 91.61450195 C-25.03144147 83.64170464 -25.2944303 74.85630576 -25.20751953 65.1027832 C-25.20767492 63.76620912 -25.20917053 62.4296346 -25.21192932 61.09306335 C-25.21330419 58.31020867 -25.20090587 55.52787514 -25.17797852 52.74511719 C-25.1495123 49.19449243 -25.15236561 45.64472622 -25.16506863 42.09403706 C-25.17204989 39.34090447 -25.16421023 36.58796744 -25.1518116 33.83485985 C-25.14516276 31.89458193 -25.14941906 29.95427641 -25.15391541 28.01399231 C-25.08563645 21.61650666 -24.80989185 16.81757291 -21.71142578 11.17700195 C-21.34017578 10.31075195 -20.96892578 9.44450195 -20.58642578 8.55200195 C-15.54377637 2.16464603 -7.80208236 0.07611389 0 0 Z " fill="#2C8DEC" transform="translate(145.71142578125,131.822998046875)"/>
<path d="M0 0 C12.07258347 9.35015019 17.607828 19.06020881 20 34 C20.10539653 37.48725035 19.76744377 40.60391026 19 44 C18.73896484 45.17949219 18.73896484 45.17949219 18.47265625 46.3828125 C18.02327972 48.26560176 17.51807132 50.13494323 17 52 C16.34 52 15.68 52 15 52 C15.33 52.99 15.66 53.98 16 55 C15.0625 57.6875 15.0625 57.6875 14 60 C14.845625 60.7425 15.69125 61.485 16.5625 62.25 C19 65 19 65 18.96875 66.84375 C17.56229846 69.97423891 15.40008915 71.8809269 12.9375 74.25 C11.55884766 75.58804688 11.55884766 75.58804688 10.15234375 76.953125 C9.44207031 77.62859375 8.73179687 78.3040625 8 79 C7.56429687 78.54367188 7.12859375 78.08734375 6.6796875 77.6171875 C4.86047948 75.86098236 3.1414663 74.34817008 1 73 C-2.10970384 73.28544305 -2.10970384 73.28544305 -5 75 C-14.96536271 79.52971032 -25.55624724 80.58379145 -36 77 C-40.77463572 74.88542413 -45.3918697 72.45155154 -50 70 C-50 69.34 -50 68.68 -50 68 C-50.66 68 -51.32 68 -52 68 C-53.625 66.625 -53.625 66.625 -55 65 C-55 64.34 -55 63.68 -55 63 C-55.66 63 -56.32 63 -57 63 C-58.15143825 60.9195946 -59.29624112 58.83598003 -60.4375 56.75 C-60.76298828 56.16347656 -61.08847656 55.57695312 -61.42382812 54.97265625 C-66.4363249 45.7744663 -66.82870135 33.76086884 -64.4375 23.61279297 C-61.69540018 15.0604966 -57.62892178 8.01778566 -50 3 C-49.05125 2.278125 -48.1025 1.55625 -47.125 0.8125 C-32.76632664 -7.51553055 -14.38411905 -9.44708376 0 0 Z M-44 21 C-48.09677982 27.44721113 -49.0526968 34.51050086 -48 42 C-46.15226454 49.24081333 -42.0261136 53.75111912 -36 58 C-31.62284298 60.39583026 -27.98678651 61.1766649 -23 61.25 C-21.4221875 61.28867188 -21.4221875 61.28867188 -19.8125 61.328125 C-16.96789806 61.25010905 -16.96789806 61.25010905 -15.125 59.484375 C-14.75375 58.99453125 -14.3825 58.5046875 -14 58 C-15.32 56.35 -16.64 54.7 -18 53 C-16.53033642 49.60140297 -14.61962486 47.35036291 -12 44.75 C-10.948125 43.69039062 -10.948125 43.69039062 -9.875 42.609375 C-8 41 -8 41 -6 41 C-4.33333333 42.66666667 -2.66666667 44.33333333 -1 46 C-0.34 46 0.32 46 1 46 C3.13171419 38.71806432 2.51579573 31.07567549 0 24 C-0.66 24 -1.32 24 -2 24 C-2.04125 23.443125 -2.0825 22.88625 -2.125 22.3125 C-3.65140658 18.27842547 -7.11860971 15.96654934 -10.84765625 14.05078125 C-23.50228656 8.54292729 -34.43058924 11.01698013 -44 21 Z " fill="#3C3C3C" transform="translate(296,145)"/>
<path d="M0 0 C2.21875 2.5390625 2.21875 2.5390625 4 5 C4.825 5.721875 5.65 6.44375 6.5 7.1875 C12.56827171 14.01430568 13.6686824 21.59201294 13.38671875 30.52734375 C12.4936173 38.54721431 9.80864835 45.34421081 4 51 C3.34 51 2.68 51 2 51 C2 51.66 2 52.32 2 53 C-0.475 53.495 -0.475 53.495 -3 54 C-3 54.66 -3 55.32 -3 56 C-9.30778837 59.45426506 -14.68032978 60.1413021 -21.8125 60.125 C-23.52373047 60.12886719 -23.52373047 60.12886719 -25.26953125 60.1328125 C-28 60 -28 60 -29 59 C-29.07325168 56.13732433 -29.09238205 53.299281 -29.0625 50.4375 C-29.05798828 49.63119141 -29.05347656 48.82488281 -29.04882812 47.99414062 C-29.03700518 45.99606244 -29.01906914 43.99802217 -29 42 C-27.95199219 41.95101562 -26.90398437 41.90203125 -25.82421875 41.8515625 C-24.44528646 41.77651857 -23.0663815 41.70097143 -21.6875 41.625 C-20.99720703 41.5940625 -20.30691406 41.563125 -19.59570312 41.53125 C-15.93009211 41.31875081 -14.12099208 41.08066139 -11 39 C-10.01 39 -9.02 39 -8 39 C-5.29128134 32.66435296 -3.77506261 26.73186185 -6 20 C-8.76293525 16.06659938 -12.21933985 13.83264501 -16.9375 12.9375 C-21.24265382 12.72851195 -25.49332236 13.40682662 -29 16 C-33.96680901 22.5078502 -33.60171049 28.84677104 -33.609375 36.80859375 C-33.62437498 38.14382414 -33.64110593 39.47903609 -33.65948486 40.81422424 C-33.7029679 44.30761622 -33.72311453 47.80075801 -33.73822021 51.29437256 C-33.75786072 54.86762165 -33.79982255 58.44060323 -33.83984375 62.01367188 C-33.91493889 69.00903981 -33.96328893 76.00432631 -34 83 C-39.61 83 -45.22 83 -51 83 C-51.0452859 74.9067129 -51.08193623 66.81352524 -51.10362434 58.72014523 C-51.11403649 54.9615754 -51.12814842 51.20309719 -51.15087891 47.44458008 C-51.17269938 43.81358 -51.18458793 40.18266774 -51.18975449 36.55160713 C-51.19343379 35.17020855 -51.20061838 33.78881447 -51.21146011 32.40745354 C-51.31188082 19.0756868 -51.31188082 19.0756868 -49 13 C-48.34 13 -47.68 13 -47 13 C-46.773125 12.113125 -46.54625 11.22625 -46.3125 10.3125 C-44.81610154 6.5358753 -43.07508263 4.61382024 -40 2 C-39.34 2 -38.68 2 -38 2 C-38 1.34 -38 0.68 -38 0 C-36.865625 -0.28875 -35.73125 -0.5775 -34.5625 -0.875 C-33.386875 -1.24625 -32.21125 -1.6175 -31 -2 C-30.67 -2.66 -30.34 -3.32 -30 -4 C-19.66737086 -6.80145227 -9.28632357 -5.22355701 0 0 Z " fill="#3C3C3C" transform="translate(533,164)"/>
<path d="M0 0 C3.14142518 1.78523691 5.24346369 3.57502852 7.48828125 6.4140625 C7.9884375 7.0121875 8.48859375 7.6103125 9.00390625 8.2265625 C14.90126069 15.55531365 17.00116928 22.19535974 16.59765625 31.47265625 C16.57358704 32.3024147 16.54951782 33.13217316 16.52471924 33.98707581 C16.47143922 35.72429721 16.41053048 37.46130016 16.34228516 39.19799805 C16.23763555 41.868037 16.15589814 44.53803946 16.078125 47.20898438 C16.02344726 48.90108457 15.96750381 50.59314444 15.91015625 52.28515625 C15.87097076 53.48657509 15.87097076 53.48657509 15.83099365 54.71226501 C15.60585706 60.29648669 15.60585706 60.29648669 14.48828125 61.4140625 C12.1566807 61.51315552 9.82198183 61.54376754 7.48828125 61.5390625 C6.20953125 61.54164063 4.93078125 61.54421875 3.61328125 61.546875 C0.48828125 61.4140625 0.48828125 61.4140625 -0.51171875 60.4140625 C-0.62244365 57.90417107 -0.67334058 55.4171764 -0.6875 52.90625 C-0.71071718 51.34634095 -0.73483526 49.78644511 -0.75976562 48.2265625 C-0.79474835 45.76456122 -0.8241421 43.30303875 -0.83764648 40.84082031 C-0.85322483 38.46620086 -0.89351518 36.09299193 -0.9375 33.71875 C-0.93559158 32.99243378 -0.93368317 32.26611755 -0.93171692 31.51779175 C-1.05983438 26.10305866 -2.45845072 22.90010757 -5.51171875 18.4140625 C-9.26697899 15.3692569 -12.72066343 14.65361527 -17.51171875 14.4140625 C-20.56562929 14.90112957 -23.53056817 15.59610508 -26.51171875 16.4140625 C-26.51171875 17.4040625 -26.51171875 18.3940625 -26.51171875 19.4140625 C-27.17171875 19.4140625 -27.83171875 19.4140625 -28.51171875 19.4140625 C-30.6201574 23.63093981 -31.29403748 27.76563379 -30.51171875 32.4140625 C-28.6275796 35.74214489 -28.6275796 35.74214489 -26.51171875 38.4140625 C-26.51171875 39.0740625 -26.51171875 39.7340625 -26.51171875 40.4140625 C-22.05169225 42.13986942 -18.46740839 42.61279649 -13.69921875 42.4765625 C-11.63730974 42.42297616 -9.57422055 42.39340798 -7.51171875 42.4140625 C-5.62619345 44.2995878 -6.37925186 46.99175081 -6.375 49.49609375 C-6.37886719 50.29402344 -6.38273437 51.09195313 -6.38671875 51.9140625 C-6.38091797 53.11095703 -6.38091797 53.11095703 -6.375 54.33203125 C-6.38511108 60.28745483 -6.38511108 60.28745483 -7.51171875 61.4140625 C-17.11653603 62.07487393 -24.99314713 61.09927689 -33.51171875 56.4140625 C-33.51171875 55.7540625 -33.51171875 55.0940625 -33.51171875 54.4140625 C-34.10984375 54.3109375 -34.70796875 54.2078125 -35.32421875 54.1015625 C-40.10516408 52.59897968 -43.08025613 47.56125642 -45.76171875 43.5390625 C-46.84157667 40.47946507 -46.63529133 37.62694954 -46.51171875 34.4140625 C-47.17171875 34.0840625 -47.83171875 33.7540625 -48.51171875 33.4140625 C-47.31200762 14.05320709 -47.31200762 14.05320709 -40.51171875 7.4140625 C-39.46559147 6.10511506 -38.42381616 4.79267597 -37.38671875 3.4765625 C-35.22982684 0.80177281 -33.85612321 0.09339466 -30.51171875 -0.5859375 C-29.08859375 -1.359375 -29.08859375 -1.359375 -27.63671875 -2.1484375 C-18.63768342 -6.02168397 -8.52563195 -4.04261754 0 0 Z " fill="#3C3C3C" transform="translate(462.51171875,162.5859375)"/>
<path d="M0 0 C0 5.61 0 11.22 0 17 C-8.58 17 -17.16 17 -26 17 C-26 39.11 -26 61.22 -26 84 C-28.97239791 85.48619895 -31.69619578 85.13177009 -35 85.125 C-36.8871875 85.12886719 -36.8871875 85.12886719 -38.8125 85.1328125 C-42 85 -42 85 -44 84 C-44 61.89 -44 39.78 -44 17 C-52.58 17 -61.16 17 -70 17 C-70 11.39 -70 5.78 -70 0 C-61.16852369 -0.15310485 -52.33700388 -0.30187767 -43.50532722 -0.4429636 C-39.40470428 -0.50864553 -35.30413149 -0.57624729 -31.20361328 -0.64819336 C-27.24851634 -0.717518 -23.2933672 -0.78185611 -19.33813095 -0.84269524 C-17.82698481 -0.86682421 -16.31586657 -0.89276879 -14.80478287 -0.92053413 C-12.69297906 -0.95903125 -10.58116946 -0.99114915 -8.46923828 -1.02172852 C-7.26566681 -1.04171402 -6.06209534 -1.06169952 -4.822052 -1.08229065 C-2 -1 -2 -1 0 0 Z " fill="#3F3F3F" transform="translate(433,139)"/>
<path d="M0 0 C0.75539062 -0.020625 1.51078125 -0.04125 2.2890625 -0.0625 C5.6386175 -0.08592346 8.39324188 0.18300742 11.625 1.1171875 C14.97058836 4.68494384 14.28813446 8.92174962 14.25 13.625 C13.96148178 22.00253295 13.96148178 22.00253295 17.625 29.25 C24.33167335 34.28000501 28.92823341 34.30832708 37.08203125 34.08984375 C40.7038805 34.25356571 44.91739874 34.54239874 47.625 37.25 C47.95940403 40.86579649 47.94990962 44.4957241 48 48.125 C48.05607422 49.65447266 48.05607422 49.65447266 48.11328125 51.21484375 C48.20109903 58.6208095 48.20109903 58.6208095 45.6328125 61.42578125 C41.71230564 62.50010196 38.17212938 62.64987326 34.125 62.5625 C33.37863281 62.56572266 32.63226563 62.56894531 31.86328125 62.57226562 C27.67872112 62.53153097 24.44458882 62.15221586 20.625 60.25 C20.59994385 59.67032471 20.5748877 59.09064941 20.54907227 58.4934082 C20.43253766 55.84957893 20.31007318 53.20605591 20.1875 50.5625 C20.14818359 49.65048828 20.10886719 48.73847656 20.06835938 47.79882812 C20.02646484 46.91259766 19.98457031 46.02636719 19.94140625 45.11328125 C19.88641968 43.89572144 19.88641968 43.89572144 19.83032227 42.65356445 C19.61462569 40.12855515 19.16600548 37.72399303 18.625 35.25 C17.965 35.25 17.305 35.25 16.625 35.25 C16.0475 34.46625 15.47 33.6825 14.875 32.875 C11.90527426 29.41031997 9.10303488 28.53124573 4.57714844 28.01757812 C2.34299817 27.86790303 0.11274702 27.76618579 -2.125 27.6875 C-10.13252737 27.37123631 -10.13252737 27.37123631 -12.375 26.25 C-13.76776213 22.07171361 -13.55924906 18.12575966 -13.5625 13.75 C-13.57474609 12.88246094 -13.58699219 12.01492187 -13.59960938 11.12109375 C-13.60154297 10.28707031 -13.60347656 9.45304688 -13.60546875 8.59375 C-13.60957764 7.83255859 -13.61368652 7.07136719 -13.61791992 6.28710938 C-13.375 4.25 -13.375 4.25 -11.375 1.25 C-7.56907507 -0.01864164 -3.96629359 0.02679928 0 0 Z " fill="#37A4E7" transform="translate(170.375,167.75)"/>
<path d="M0 0 C0 5.61 0 11.22 0 17 C-6.27 17.66 -12.54 18.32 -19 19 C-19.33 20.65 -19.66 22.3 -20 24 C-21.33333333 24.66666667 -22.66666667 25.33333333 -24 26 C-25.23536754 30.21938561 -25.21479185 34.56083204 -25.31640625 38.92578125 C-25.33718735 39.67337204 -25.35796844 40.42096283 -25.37937927 41.19120789 C-25.44444189 43.56488396 -25.5035571 45.93866487 -25.5625 48.3125 C-25.60572646 49.92774495 -25.64934204 51.54297953 -25.69335938 53.15820312 C-25.80007851 57.10536299 -25.90146619 61.05262767 -26 65 C-28.47923801 65.02685095 -30.9581884 65.04676547 -33.4375 65.0625 C-34.14455078 65.07087891 -34.85160156 65.07925781 -35.58007812 65.08789062 C-37.38693559 65.09653588 -39.19387603 65.05220011 -41 65 C-43.06606945 62.93393055 -42.21253773 58.56832399 -42.23828125 55.72265625 C-42.246353 54.88214218 -42.25442474 54.04162811 -42.26274109 53.17564392 C-42.27660794 51.38754348 -42.28731839 49.59941628 -42.29516602 47.8112793 C-42.31223342 45.10477332 -42.35607578 42.3995359 -42.40039062 39.69335938 C-42.49805675 28.9357409 -42.31380401 19.59410932 -35 11 C-34.34 11 -33.68 11 -33 11 C-32.75765625 10.39414063 -32.5153125 9.78828125 -32.265625 9.1640625 C-30.73812165 6.55222035 -29.40771263 5.77617503 -26.75 4.375 C-25.62851562 3.76785156 -25.62851562 3.76785156 -24.484375 3.1484375 C-19.44122014 0.8171678 -14.85280306 -0.29498143 -9.3125 -0.6875 C-8.19488281 -0.77386719 -7.07726562 -0.86023438 -5.92578125 -0.94921875 C-3 -1 -3 -1 0 0 Z " fill="#3A3A3A" transform="translate(363,159)"/>
<path d="M0 0 C6.27 0 12.54 0 19 0 C19 7.26 19 14.52 19 22 C16.72926921 23.1353654 15.45716721 23.12892412 12.9375 23.1328125 C12.14085937 23.13410156 11.34421875 23.13539063 10.5234375 23.13671875 C9.69070312 23.13285156 8.85796875 23.12898438 8 23.125 C6.75089844 23.13080078 6.75089844 23.13080078 5.4765625 23.13671875 C4.67992187 23.13542969 3.88328125 23.13414062 3.0625 23.1328125 C2.33160156 23.13168457 1.60070312 23.13055664 0.84765625 23.12939453 C-1 23 -1 23 -3 22 C-3 15.73 -3 9.46 -3 3 C-2.34 3 -1.68 3 -1 3 C-0.67 2.01 -0.34 1.02 0 0 Z " fill="#227CEF" transform="translate(162,170)"/>
<path d="M0 0 C5.18316555 1.37201441 8.06405232 4.7037012 11 9 C12.58409404 12.4327916 13.24738756 15.10960831 13.22705078 18.88208008 C13.22689972 19.82267776 13.22674866 20.76327545 13.22659302 21.7323761 C13.21627045 22.7346373 13.20594788 23.7368985 13.1953125 24.76953125 C13.1924826 25.80567062 13.18965271 26.84181 13.18673706 27.90934753 C13.17556454 31.21051707 13.15046505 34.51141281 13.125 37.8125 C13.11496643 40.05403253 13.10584124 42.29556933 13.09765625 44.53710938 C13.07563478 50.0248326 13.04218621 55.51239674 13 61 C8.89719721 62.36760093 7.08919249 61.15854394 3.29296875 59.375 C-0.58676277 57.04848298 -4.11156373 53.71552304 -5.54858398 49.32324219 C-6.15126161 46.22152217 -6.2227284 43.20515692 -6.31640625 40.046875 C-6.33718735 39.38665344 -6.35796844 38.72643188 -6.37937927 38.04620361 C-6.44450147 35.94756985 -6.50358502 33.84881628 -6.5625 31.75 C-6.60572079 30.32290453 -6.6493362 28.89582095 -6.69335938 27.46875 C-6.80014411 23.97929278 -6.90151566 20.48970247 -7 17 C-6.01 17 -5.02 17 -4 17 C-3.14304033 22.88400655 -2.87460766 28.55909292 -2.9375 34.5 C-2.94201172 35.32242188 -2.94652344 36.14484375 -2.95117188 36.9921875 C-2.96281511 38.99482396 -2.98074444 40.99742227 -3 43 C-1.515 42.505 -1.515 42.505 0 42 C0.99 42.66 1.98 43.32 3 44 C2.34 45.98 1.68 47.96 1 50 C1.66 50 2.32 50 3 50 C3 50.66 3 51.32 3 52 C2.505 52.495 2.505 52.495 2 53 C2.33 53.99 2.66 54.98 3 56 C5.31 56.33 7.62 56.66 10 57 C9.95561485 51.32520591 9.88553954 45.65149995 9.79248047 39.97729492 C9.76439628 38.05030007 9.7431198 36.12319271 9.72900391 34.19604492 C9.70739943 31.41266802 9.66066189 28.6306261 9.609375 25.84765625 C9.60814636 24.99728287 9.60691772 24.14690948 9.60565186 23.27076721 C9.45715554 17.09425335 7.86899122 12.45359638 5 7 C4.01 7.495 4.01 7.495 3 8 C0 3.375 0 3.375 0 0 Z " fill="#75C4E1" transform="translate(205,135)"/>
<path d="M0 0 C0.66 0 1.32 0 2 0 C2.33 21.45 2.66 42.9 3 65 C4.65 65.33 6.3 65.66 8 66 C8.33 67.65 8.66 69.3 9 71 C9.99 71 10.98 71 12 71 C12 72.32 12 73.64 12 75 C13.98567708 74.93489583 15.97135417 74.86979167 17.95703125 74.8046875 C20 75 20 75 23 77 C25.75218977 77.24073135 28.41217466 77.37282688 31.16796875 77.4140625 C31.96278152 77.43342865 32.7575943 77.4527948 33.57649231 77.4727478 C36.11338595 77.53249442 38.65032509 77.57890883 41.1875 77.625 C42.90822284 77.66318435 44.62892665 77.70223635 46.34960938 77.7421875 C50.56625165 77.83819179 54.7829834 77.92224076 59 78 C58.505 77.13375 58.505 77.13375 58 76.25 C57 74 57 74 57 70 C56.01 70 55.02 70 54 70 C54 68.68 54 67.36 54 66 C53.01 66 52.02 66 51 66 C51.495 64.515 51.495 64.515 52 63 C58.95348837 68.44186047 58.95348837 68.44186047 60 72 C60.0777346 74.33203812 60.08967728 76.66839059 60 79 C54.93285703 80.68904766 49.54596668 80.18591677 44.24316406 80.18530273 C42.16709854 80.18745633 40.09159416 80.20552513 38.015625 80.22460938 C14.87647064 80.32742467 14.87647064 80.32742467 5.90234375 73.4375 C-0.39840577 65.36426037 -0.54944067 56.54694403 -0.390625 46.6796875 C-0.38314639 45.3263534 -0.37746113 43.97300832 -0.37347412 42.61965942 C-0.35834469 39.09148214 -0.31917698 35.56398424 -0.2746582 32.03607178 C-0.23342762 28.42257879 -0.2154044 24.8089739 -0.1953125 21.1953125 C-0.15266675 14.12993372 -0.08457417 7.06501167 0 0 Z " fill="#5B90DD" transform="translate(121,150)"/>
<path d="M0 0 C0 0.66 0 1.32 0 2 C-0.66 2 -1.32 2 -2 2 C-0.60240095 5.54518884 -0.60240095 5.54518884 1 9 C0.34 9.66 -0.32 10.32 -1 11 C-1 10.01 -1 9.02 -1 8 C-8.80575195 7.97687208 -16.61149595 7.95908262 -24.41727352 7.94818783 C-28.0414596 7.94295998 -31.6656223 7.93586413 -35.28979492 7.92456055 C-38.78459975 7.91372816 -42.27938204 7.90772242 -45.77420235 7.90512276 C-47.76239389 7.90236449 -49.75057631 7.89455312 -51.73875427 7.88670349 C-53.54050865 7.88659019 -53.54050865 7.88659019 -55.37866211 7.88647461 C-56.44233505 7.884254 -57.506008 7.88203339 -58.60191345 7.87974548 C-60.95243414 7.72883237 -60.95243414 7.72883237 -62 9 C-62.09370624 10.77991924 -62.11744271 12.56356739 -62.11352539 14.34594727 C-62.11344986 15.4870546 -62.11337433 16.62816193 -62.11329651 17.80384827 C-62.10813522 19.0454924 -62.10297394 20.28713654 -62.09765625 21.56640625 C-62.0962413 22.83016586 -62.09482635 24.09392548 -62.09336853 25.39598083 C-62.08870582 28.76124889 -62.0797148 32.1264499 -62.06866455 35.49169922 C-62.05844846 38.92349659 -62.05381578 42.35530108 -62.04882812 45.78710938 C-62.03862263 52.52477754 -62.01905091 59.26232771 -62 66 C-53.42 66 -44.84 66 -36 66 C-36 66.33 -36 66.66 -36 67 C-40.29057953 67.25398309 -44.58223134 67.47398533 -48.875 67.6875 C-50.09832031 67.76033203 -51.32164062 67.83316406 -52.58203125 67.90820312 C-53.74863281 67.96298828 -54.91523438 68.01777344 -56.1171875 68.07421875 C-57.19597168 68.13182373 -58.27475586 68.18942871 -59.38623047 68.2487793 C-60.24877441 68.16668213 -61.11131836 68.08458496 -62 68 C-64.26373511 64.60439733 -64.24859216 63.43882503 -64.24291992 59.45874023 C-64.24753487 57.75698891 -64.24753487 57.75698891 -64.25224304 56.02085876 C-64.24505753 54.79581131 -64.23787201 53.57076385 -64.23046875 52.30859375 C-64.23001053 51.05240738 -64.22955231 49.79622101 -64.2290802 48.50196838 C-64.226057 45.8446808 -64.21923925 43.18773949 -64.20581055 40.53051758 C-64.18880359 37.12179405 -64.1849968 33.71321865 -64.18575573 30.30445766 C-64.18541875 27.05582167 -64.17658288 23.80721683 -64.16796875 20.55859375 C-64.16685593 19.33152206 -64.1657431 18.10445038 -64.16459656 16.8401947 C-64.15821671 15.70884598 -64.15183685 14.57749725 -64.14526367 13.41186523 C-64.13954597 11.91320168 -64.13954597 11.91320168 -64.13371277 10.38426208 C-64 8 -64 8 -63 6 C-45.35587272 4.80335645 -27.67510487 4.45846185 -10 4 C-10 3.01 -10 2.02 -10 1 C-9.05125 1.020625 -8.1025 1.04125 -7.125 1.0625 C-4.31337204 1.00626744 -2.6726858 0 0 0 Z " fill="#5598D1" transform="translate(202,144)"/>
<path d="M0 0 C0.76376953 -0.01224609 1.52753906 -0.02449219 2.31445312 -0.03710938 C3.42530273 -0.04000977 3.42530273 -0.04000977 4.55859375 -0.04296875 C5.23075928 -0.04707764 5.9029248 -0.05118652 6.59545898 -0.05541992 C8.5625 0.1875 8.5625 0.1875 12.5625 2.1875 C12.5625 10.4375 12.5625 18.6875 12.5625 27.1875 C9.61557237 28.16980921 8.00696529 28.25477376 4.96484375 28.1015625 C3.63936523 28.03582031 3.63936523 28.03582031 2.28710938 27.96875 C1.36736328 27.9171875 0.44761719 27.865625 -0.5 27.8125 C-1.42361328 27.76867187 -2.34722656 27.72484375 -3.29882812 27.6796875 C-10.17656888 27.31796556 -10.17656888 27.31796556 -12.4375 26.1875 C-13.83026213 22.00921361 -13.62174906 18.06325966 -13.625 13.6875 C-13.63724609 12.81996094 -13.64949219 11.95242187 -13.66210938 11.05859375 C-13.66404297 10.22457031 -13.66597656 9.39054688 -13.66796875 8.53125 C-13.67207764 7.77005859 -13.67618652 7.00886719 -13.68041992 6.22460938 C-13.4375 4.1875 -13.4375 4.1875 -11.4375 1.1875 C-7.60964707 -0.08845098 -3.9878343 0.00334831 0 0 Z M-8.4375 2.1875 C-8.7675 3.1775 -9.0975 4.1675 -9.4375 5.1875 C-10.0975 5.1875 -10.7575 5.1875 -11.4375 5.1875 C-11.4375 11.4575 -11.4375 17.7275 -11.4375 24.1875 C-9.16676921 25.3228654 -7.89466721 25.31642412 -5.375 25.3203125 C-4.57835937 25.32160156 -3.78171875 25.32289063 -2.9609375 25.32421875 C-1.71183594 25.31841797 -1.71183594 25.31841797 -0.4375 25.3125 C0.39523438 25.31636719 1.22796875 25.32023437 2.0859375 25.32421875 C2.88257813 25.32292969 3.67921875 25.32164062 4.5 25.3203125 C5.59634766 25.31862061 5.59634766 25.31862061 6.71484375 25.31689453 C8.65816053 25.29951795 8.65816053 25.29951795 10.5625 24.1875 C10.5625 16.9275 10.5625 9.6675 10.5625 2.1875 C4.2925 2.1875 -1.9775 2.1875 -8.4375 2.1875 Z " fill="#4585C9" transform="translate(170.4375,167.8125)"/>
<path d="M0 0 C3 1 3 1 4 3 C3.67 3.66 3.34 4.32 3 5 C7.29 5 11.58 5 16 5 C16 5.33 16 5.66 16 6 C10.06 6 4.12 6 -2 6 C-2 26.13 -2 46.26 -2 67 C-4 66 -4 66 -4.61393738 64.27845764 C-5.05620801 61.66827257 -5.1498213 59.19293507 -5.17700195 56.54467773 C-5.18983719 55.45352158 -5.20267242 54.36236542 -5.21589661 53.23814392 C-5.22328354 52.06514236 -5.23067047 50.89214081 -5.23828125 49.68359375 C-5.246353 48.47558609 -5.25442474 47.26757843 -5.26274109 46.02296448 C-5.27656434 43.47015818 -5.28729434 40.91733354 -5.29516602 38.36450195 C-5.3124491 34.44903114 -5.35636037 30.53438951 -5.40039062 26.61914062 C-5.41051157 24.14063121 -5.41902953 21.66211463 -5.42578125 19.18359375 C-5.44328934 18.00856796 -5.46079742 16.83354218 -5.47883606 15.62290955 C-5.47591049 14.53490555 -5.47298492 13.44690155 -5.4699707 12.32592773 C-5.47583694 11.3675853 -5.48170319 10.40924286 -5.48774719 9.42185974 C-5 7 -5 7 -3.09562683 5.16712952 C-1 4 -1 4 1 4 C0.67 2.68 0.34 1.36 0 0 Z " fill="#2777E7" transform="translate(141,144)"/>
<path d="M0 0 C2.375 -0.125 2.375 -0.125 5 0 C8.43809065 3.43809065 7.41096358 8.27593638 7.4375 12.9375 C7.47037109 13.95263672 7.50324219 14.96777344 7.53710938 16.01367188 C7.59057148 23.35742125 7.59057148 23.35742125 5.00390625 26.171875 C1.08469366 27.25233413 -2.45274048 27.39987607 -6.5 27.3125 C-7.24636719 27.31572266 -7.99273437 27.31894531 -8.76171875 27.32226562 C-12.94627888 27.28153097 -16.18041118 26.90221586 -20 25 C-19.505 23.515 -19.505 23.515 -19 22 C-18.67 22.66 -18.34 23.32 -18 24 C-11.07 24 -4.14 24 3 24 C3.94137255 21.17588235 4.11725382 19.47081968 4.09765625 16.55078125 C4.09282227 15.27944336 4.09282227 15.27944336 4.08789062 13.98242188 C4.07951172 13.10134766 4.07113281 12.22027344 4.0625 11.3125 C4.05798828 10.41982422 4.05347656 9.52714844 4.04882812 8.60742188 C4.03704983 6.40488013 4.02060164 4.20247401 4 2 C2.68 1.34 1.36 0.68 0 0 Z " fill="#94CBDF" transform="translate(211,203)"/>
<path d="M0 0 C0.33 0 0.66 0 1 0 C1.02187378 0.91495239 1.02187378 0.91495239 1.04418945 1.84838867 C1.11894775 4.62871064 1.21551482 7.40786824 1.3125 10.1875 C1.33505859 11.14720703 1.35761719 12.10691406 1.38085938 13.09570312 C1.58067549 20.07208098 1.58067549 20.07208098 5 26 C6.99921928 27.55054328 6.99921928 27.55054328 9.1875 28.6875 C11.35546875 29.88671875 11.35546875 29.88671875 13 31 C13 31.66 13 32.32 13 33 C11.68 32.67 10.36 32.34 9 32 C8.505 34.475 8.505 34.475 8 37 C6 34 6 34 6 32 C5.34 32 4.68 32 4 32 C3.4225 31.21625 2.845 30.4325 2.25 29.625 C-0.34121129 26.60192016 -2.19684394 25.95078902 -6 25 C-3 24 -3 24 -1 24 C-0.67 16.08 -0.34 8.16 0 0 Z " fill="#87B9E3" transform="translate(183,171)"/>
<path d="M0 0 C0.99 0 1.98 0 3 0 C4.02250405 6.69860922 4.11756273 13.2315198 4.0625 20 C4.05798828 21.06089844 4.05347656 22.12179688 4.04882812 23.21484375 C4.03713843 25.80995598 4.02075276 28.40494709 4 31 C3.01 30.67 2.02 30.34 1 30 C0.67 20.1 0.34 10.2 0 0 Z " fill="#7BBFE5" transform="translate(198,152)"/>
<path d="M0 0 C4.44236463 2.22118232 6.70776632 4.58532772 9 9 C9.25 12.875 9.25 12.875 9 16 C5.46173745 17.17942085 2.65851274 17.11289189 -1.07421875 17.09765625 C-2.09996758 17.09553383 -2.09996758 17.09553383 -3.1464386 17.09336853 C-5.32683722 17.08777876 -7.50713251 17.07522822 -9.6875 17.0625 C-11.16731622 17.05748367 -12.64713406 17.052921 -14.12695312 17.04882812 C-17.75133557 17.03781271 -21.3756577 17.02055512 -25 17 C-25 16.67 -25 16.34 -25 16 C-14.11 15.67 -3.22 15.34 8 15 C7.34 13.68 6.68 12.36 6 11 C6 9.68 6 8.36 6 7 C5.01 7 4.02 7 3 7 C3 5.68 3 4.36 3 3 C2.01 3 1.02 3 0 3 C0 2.01 0 1.02 0 0 Z " fill="#A4C8E5" transform="translate(172,213)"/>
<path d="M0 0 C2.475 0.99 2.475 0.99 5 2 C4.34 3.98 3.68 5.96 3 8 C3.66 8 4.32 8 5 8 C5 8.66 5 9.32 5 10 C4.34 10 3.68 10 3 10 C3 10.99 3 11.98 3 13 C1.125 12.6875 1.125 12.6875 -1 12 C-3 9 -3 9 -2.75 5.4375 C-2 2 -2 2 0 0 Z " fill="#3CA9E5" transform="translate(203,177)"/>
<path d="M0 0 C0.33 0 0.66 0 1 0 C1 10.56 1 21.12 1 32 C2.65 32 4.3 32 6 32 C5.67 32.99 5.34 33.98 5 35 C8.63 35.33 12.26 35.66 16 36 C16 36.33 16 36.66 16 37 C13.52076199 37.02685095 11.0418116 37.04676547 8.5625 37.0625 C7.85544922 37.07087891 7.14839844 37.07925781 6.41992188 37.08789062 C4.61306441 37.09653588 2.80612397 37.05220011 1 37 C0 36 0 36 -0.11352539 32.58178711 C-0.11336628 31.06363012 -0.10767226 29.54546771 -0.09765625 28.02734375 C-0.0962413 27.22970108 -0.09482635 26.43205841 -0.09336853 25.61024475 C-0.08775316 23.05262565 -0.07519812 20.49509282 -0.0625 17.9375 C-0.05748698 16.20768355 -0.05292373 14.47786574 -0.04882812 12.74804688 C-0.03777875 8.49866447 -0.02050386 4.24934688 0 0 Z " fill="#767676" transform="translate(321,187)"/>
<path d="M0 0 C-0.33 1.32 -0.66 2.64 -1 4 C-1.84256348 3.67854004 -2.68512695 3.35708008 -3.55322266 3.02587891 C-7.2253317 1.93293357 -10.32413089 1.68399664 -14.1484375 1.5859375 C-14.80582916 1.56657135 -15.46322083 1.5472052 -16.14053345 1.5272522 C-18.21856135 1.46797539 -20.29664624 1.42128206 -22.375 1.375 C-23.7929915 1.33677222 -25.21096097 1.29771777 -26.62890625 1.2578125 C-30.08573461 1.16231829 -33.54272983 1.07809811 -37 1 C-37 0.67 -37 0.34 -37 0 C-32.69524355 -0.1685068 -28.39028252 -0.32896515 -24.08496094 -0.48217773 C-22.62231505 -0.53533842 -21.15974545 -0.59064511 -19.69726562 -0.64819336 C-17.58740686 -0.73083429 -15.47738849 -0.8055913 -13.3671875 -0.87890625 C-11.46622314 -0.94960327 -11.46622314 -0.94960327 -9.52685547 -1.02172852 C-6.22269964 -1.00137202 -3.2339673 -0.6463582 0 0 Z " fill="#439CD5" transform="translate(205,134)"/>
<path d="M0 0 C5.19897112 1.37619824 8.08143805 4.66863099 11 9 C11.875 11.9375 11.875 11.9375 12 14 C11.34 14 10.68 14 10 14 C10 12.68 10 11.36 10 10 C9.01 10 8.02 10 7 10 C6.34 9.01 5.68 8.02 5 7 C4.01 7.495 4.01 7.495 3 8 C0 3.375 0 3.375 0 0 Z " fill="#62B7DF" transform="translate(205,135)"/>
<path d="M0 0 C0.99 0.33 1.98 0.66 3 1 C4.4570348 1.11193299 5.91796072 1.17750766 7.37890625 1.2109375 C8.21744141 1.23929688 9.05597656 1.26765625 9.91992188 1.296875 C11.68533047 1.34906742 13.4509917 1.39330594 15.21679688 1.4296875 C16.47266602 1.47609375 16.47266602 1.47609375 17.75390625 1.5234375 C18.52033447 1.54325684 19.2867627 1.56307617 20.07641602 1.58349609 C22 2 22 2 24 5 C20.37467934 4.86152362 16.74984096 4.71297357 13.125 4.5625 C11.57619141 4.50352539 11.57619141 4.50352539 9.99609375 4.44335938 C9.00996094 4.40146484 8.02382812 4.35957031 7.0078125 4.31640625 C6.09660645 4.27974854 5.18540039 4.24309082 4.24658203 4.20532227 C2 4 2 4 0 3 C0 2.01 0 1.02 0 0 Z " fill="#6197DA" transform="translate(158,191)"/>
<path d="M0 0 C0.515625 0.2475 1.03125 0.495 1.5625 0.75 C0.923125 0.9975 0.28375 1.245 -0.375 1.5 C-1.055625 1.9125 -1.73625 2.325 -2.4375 2.75 C-2.56125 3.3996875 -2.685 4.049375 -2.8125 4.71875 C-3.4375 6.75 -3.4375 6.75 -5.28515625 7.796875 C-6.38150391 8.14492187 -6.38150391 8.14492187 -7.5 8.5 C-8.60021484 8.86351562 -8.60021484 8.86351562 -9.72265625 9.234375 C-10.57150391 9.48960937 -10.57150391 9.48960937 -11.4375 9.75 C-11.7675 8.76 -12.0975 7.77 -12.4375 6.75 C-9.43459764 3.21717369 -4.76147692 -0.48835661 0 0 Z " fill="#4A88DE" transform="translate(138.4375,133.25)"/>
<path d="M0 0 C0.64324219 0.64453125 1.28648437 1.2890625 1.94921875 1.953125 C5.97288474 4.65274213 9.07368892 4.66261203 13.8125 4.75 C14.60076172 4.77964844 15.38902344 4.80929688 16.20117188 4.83984375 C18.13357446 4.91011293 20.06679015 4.95737134 22 5 C22 5.33 22 5.66 22 6 C19.25008168 6.16811728 16.50007888 6.3345481 13.75 6.5 C12.97269531 6.54769531 12.19539062 6.59539062 11.39453125 6.64453125 C10.26337891 6.71220703 10.26337891 6.71220703 9.109375 6.78125 C8.41811523 6.82314453 7.72685547 6.86503906 7.01464844 6.90820312 C5.01161035 6.99947098 3.0051163 7 1 7 C1 6.01 1 5.02 1 4 C0.6937566 2.66018514 0.36548445 1.32488113 0 0 Z " fill="#2781E7" transform="translate(136,208)"/>
<path d="M0 0 C0.66 0.99 1.32 1.98 2 3 C1.34 3.66 0.68 4.32 0 5 C0 6.32 0 7.64 0 9 C-2 10.75 -2 10.75 -4 12 C-3.67 9.03 -3.34 6.06 -3 3 C-2.01 2.67 -1.02 2.34 0 2 C0 1.34 0 0.68 0 0 Z " fill="#4E4E4E" transform="translate(532,185)"/>
<path d="M0 0 C1.65 0 3.3 0 5 0 C4.67 0.99 4.34 1.98 4 3 C7.63 3.33 11.26 3.66 15 4 C15 4.33 15 4.66 15 5 C10.05 5 5.1 5 0 5 C0 3.35 0 1.7 0 0 Z " fill="#929292" transform="translate(322,219)"/>
<path d="M0 0 C0.99 0 1.98 0 3 0 C3 1.32 3 2.64 3 4 C5.64 4 8.28 4 11 4 C11.33 4.66 11.66 5.32 12 6 C3.80743982 6.4726477 3.80743982 6.4726477 0.4375 4.5 C-0.036875 4.005 -0.51125 3.51 -1 3 C-0.67 2.01 -0.34 1.02 0 0 Z " fill="#3479D6" transform="translate(130,221)"/>
<path d="M0 0 C0.66 0.66 1.32 1.32 2 2 C0.7260411 4.03833424 -0.61061923 6.03852126 -2 8 C-2.66 8 -3.32 8 -4 8 C-4.33 8.99 -4.66 9.98 -5 11 C-5.99 10.34 -6.98 9.68 -8 9 C-5.50174717 5.78796065 -2.9297008 2.82506863 0 0 Z " fill="#616161" transform="translate(428,163)"/>
<path d="M0 0 C0.93423645 3.01031744 1.04449911 3.86650268 0 7 C0.66 7.33 1.32 7.66 2 8 C0.68 9.32 -0.64 10.64 -2 12 C-3.35384615 5.72307692 -3.35384615 5.72307692 -1.5625 2.0625 C-1.046875 1.381875 -0.53125 0.70125 0 0 Z " fill="#4783DA" transform="translate(125,141)"/>
<path d="M0 0 C2.97 0.495 2.97 0.495 6 1 C5.34 3.31 4.68 5.62 4 8 C3.01 7.67 2.02 7.34 1 7 C0.67 4.69 0.34 2.38 0 0 Z " fill="#1C71ED" transform="translate(123,208)"/>
<path d="M0 0 C-0.99 1.98 -1.98 3.96 -3 6 C-3.99 6 -4.98 6 -6 6 C-6.33 4.35 -6.66 2.7 -7 1 C-4.53721199 -0.231394 -2.7204945 -0.07159196 0 0 Z " fill="#4D4D4D" transform="translate(504,179)"/>
<path d="M0 0 C1.65 0 3.3 0 5 0 C5.625 2.375 5.625 2.375 6 5 C5.34 5.66 4.68 6.32 4 7 C4 5.68 4 4.36 4 3 C2.68 3.33 1.36 3.66 0 4 C0 2.68 0 1.36 0 0 Z " fill="#1B76F2" transform="translate(129,218)"/>
<path d="M0 0 C2.62113708 0 4.50935112 0.31292445 7 1 C7 1.66 7 2.32 7 3 C5.35 3.33 3.7 3.66 2 4 C1.67 4.99 1.34 5.98 1 7 C0.34 7 -0.32 7 -1 7 C-0.67 4.69 -0.34 2.38 0 0 Z " fill="#1D72EB" transform="translate(126,141)"/>
<path d="M0 0 C2.97 0.495 2.97 0.495 6 1 C5.67 1.66 5.34 2.32 5 3 C0.71 3 -3.58 3 -8 3 C-8 2.67 -8 2.34 -8 2 C-5.36 2 -2.72 2 0 2 C0 1.34 0 0.68 0 0 Z " fill="#549CE0" transform="translate(166,211)"/>
<path d="M0 0 C0.33 0.99 0.66 1.98 1 3 C1.66 3.33 2.32 3.66 3 4 C3 4.66 3 5.32 3 6 C1.68 6.33 0.36 6.66 -1 7 C-1.66 5.68 -2.32 4.36 -3 3 C-2.01 2.01 -1.02 1.02 0 0 Z " fill="#565656" transform="translate(280,193)"/>
<path d="M0 0 C0.99 0.33 1.98 0.66 3 1 C3 1.99 3 2.98 3 4 C3.66 4.66 4.32 5.32 5 6 C3.02 6 1.04 6 -1 6 C-1.042721 4.33388095 -1.04063832 2.66617115 -1 1 C-0.67 0.67 -0.34 0.34 0 0 Z " fill="#4B4B4B" transform="translate(279,217)"/>
<path d="M0 0 C3.76607955 1.25535985 4.26441793 2.52883585 6 6 C6 6.99 6 7.98 6 9 C5.34 9 4.68 9 4 9 C4 7.68 4 6.36 4 5 C3.01 5 2.02 5 1 5 C0.67 3.35 0.34 1.7 0 0 Z " fill="#74BDDB" transform="translate(211,140)"/>
<path d="M0 0 C2.31 0.33 4.62 0.66 7 1 C7 1.66 7 2.32 7 3 C5.68 2.67 4.36 2.34 3 2 C2.67 3.65 2.34 5.3 2 7 C0 4 0 4 0 0 Z " fill="#56A1D9" transform="translate(189,201)"/>
<path d="M0 0 C1.65 1.32 3.3 2.64 5 4 C4.67 5.32 4.34 6.64 4 8 C3.01 7.67 2.02 7.34 1 7 C1 6.01 1 5.02 1 4 C0.6937566 2.66018514 0.36548445 1.32488113 0 0 Z " fill="#207AF0" transform="translate(136,208)"/>
<path d="M0 0 C0 0.99 0 1.98 0 3 C-1.8125 4.0625 -1.8125 4.0625 -4 5 C-4.99 4.67 -5.98 4.34 -7 4 C-2.25 0 -2.25 0 0 0 Z " fill="#717171" transform="translate(337,164)"/>
<path d="M0 0 C2.31 0.33 4.62 0.66 7 1 C6.67 1.99 6.34 2.98 6 4 C4.02 3.34 2.04 2.68 0 2 C0 1.34 0 0.68 0 0 Z " fill="#3EADE9" transform="translate(208,204)"/>
<path d="M0 0 C2.31 0 4.62 0 7 0 C6.67 0.99 6.34 1.98 6 3 C3.03 2.505 3.03 2.505 0 2 C0 1.34 0 0.68 0 0 Z " fill="#449FDB" transform="translate(197,203)"/>
<path d="M0 0 C0.33 0 0.66 0 1 0 C1 1.65 1 3.3 1 5 C-1.64 4.34 -4.28 3.68 -7 3 C-7 2.67 -7 2.34 -7 2 C-4.69 2 -2.38 2 0 2 C0 1.34 0 0.68 0 0 Z " fill="#8AC2D7" transform="translate(216,192)"/>
<path d="M0 0 C0.33 0 0.66 0 1 0 C1.33 3.63 1.66 7.26 2 11 C0.68 10.34 -0.64 9.68 -2 9 C-1.34 8.67 -0.68 8.34 0 8 C0 5.36 0 2.72 0 0 Z " fill="#2E8AE5" transform="translate(181,184)"/>
<path d="M0 0 C0.99 0 1.98 0 3 0 C3 1.32 3 2.64 3 4 C3.66 4.33 4.32 4.66 5 5 C4.34 5.66 3.68 6.32 3 7 C0 3.375 0 3.375 0 0 Z " fill="#7DBEE2" transform="translate(200,183)"/>
<path d="M0 0 C2 1 2 1 2 1 Z " fill="#D4D4D4" transform="translate(279,202)"/>
<path d="" fill="#FFFFFF" transform="translate(0,0)"/>
</svg>
